<mxfile
  host="Electron" 
  agent="Mozilla/5.0 (Macintosh; Intel Mac OS X 10_15_7) AppleWebKit/537.36 (KHTML, like Gecko) draw.io/25.0.2 Chrome/128.0.6613.186 Electron/32.2.5 Safari/537.36" 
  version="25.0.2"
  >
  <diagram
    name="-"
    >
    <mxGraphModel
      grid="1" 
      gridSize="10" 
      guides="1" 
      tooltips="1" 
      connect="1" 
      arrows="1" 
      fold="1" 
      page="1" 
      pageScale="1" 
      pageWidth="1" 
      pageHeight="1" 
      math="0" 
      shadow="0"
      >
      <root>
        <mxCell
          id="page"
          />
        <mxCell
          id="root" 
          parent="page"
          />
        <mxCell
          style="verticalAlign=top;aspect=fixed;align=center;spacingLeft=5;spacingRight=5;spacingBottom=5;strokeColor=none;" 
          id="shape_" 
          parent="root" 
          value=" " 
          vertex="1"
          >
          <mxGeometry
            as="geometry" 
            width="45" 
            height="48" 
            x="0" 
            y="0"
            />
          </mxCell>
        <mxCell
          style="shape=image;editableCssRules=.*;verticalLabelPosition=bottom;labelBackgroundColor=default;verticalAlign=top;aspect=fixed;imageAspect=0;image=data:image/svg+xml,PHN2ZyB4bWxucz0iaHR0cDovL3d3dy53My5vcmcvMjAwMC9zdmciIHZpZXdCb3g9Ii0wLjUgLTAuNSAyNS4yNjYgMjgiIGhlaWdodD0iMjgiIHdpZHRoPSIyNS4yNjYiPiYjeGE7CSAgPHN0eWxlIHR5cGU9InRleHQvY3NzIj4uc3QwIHsgc3RvcC1jb2xvcjogcmdiKDM1LCAxNDksIDI1NSk7IH0gLnN0MSB7IHN0b3AtY29sb3I6IHJnYigwLCA4NywgMjEwKTsgfSA8L3N0eWxlPiYjeGE7CTxkZWZzPiYjeGE7CQk8bGluZWFyR3JhZGllbnQgZ3JhZGllbnRVbml0cz0idXNlclNwYWNlT25Vc2UiIHkyPSIyMy4xMTIiIHgyPSIyMy4xMzYiIHkxPSIzLjQ3NCIgeDE9IjEuNzkxIiBpZD0iQSI+JiN4YTsJCQk8c3RvcCBjbGFzcz0ic3QwIi8+JiN4YTsJCQk8c3RvcCBjbGFzcz0ic3QxIiBvZmZzZXQ9IjEiLz4mI3hhOwkJPC9saW5lYXJHcmFkaWVudD4mI3hhOwk8L2RlZnM+JiN4YTsJPHBhdGggZmlsbD0idXJsKCNBKSIgZD0iTTI0LjE2NCA2LjY2NGMuNDAxLjI1NS42MDIuNTgzLjYwMi45ODQgMCAuMTA5LS4wMTguMjAxLS4wNTUuMjczdjExLjE1NkExLjM5IDEuMzkgMCAwIDEgMjQgMjAuMzM2bC0xMS4xMDIgNi45NDVjLS4yNTUuMTQ2LS41MjkuMjE5LS44Mi4yMTktLjMyOCAwLS41NjUtLjA3My0uNzExLS4yMTlMLjIxMSAyMC4zMzZhMS43NSAxLjc1IDAgMCAxLS41NDctLjYwMWMtLjEwOS0uMjU1LS4xNjQtLjQ3NC0uMTY0LS42NTZWNy45MjJhMS4zOSAxLjM5IDAgMCAxIC43MTEtMS4yNThsNS41NzgtMy41Yy4yOTItLjEwOS41NjUtLjE2NC44Mi0uMTY0cy40OTIuMDU1LjcxMS4xNjRsMTEuMTU2IDdjLjE4Mi4wNzMuMzI4LjIzNy40MzguNDkyLjE0Ni4yMTkuMjE5LjQxOS4yMTkuNjAydjQuODY3YzAgLjk0OC0uNDU2IDEuNDIyLTEuMzY3IDEuNDIyLS40MDEgMC0uNzQ3LS4xMjgtMS4wMzktLjM4My0uMjU1LS4yNTUtLjM4My0uNjAyLS4zODMtMS4wMzl2LTQuMDQ3TDYuNjA5IDUuOTUzbC00LjE1NiAyLjY4djkuNjI1bDkuNzM0IDYuMTI1IDkuNzM0LTYuMTI1VjguNjMzTDExLjQ3NyAyLjA3Yy0uNDM3LS4yOTItLjY1Ni0uNjc0LS42NTYtMS4xNDggMC0uMTgyLjA3My0uNDU2LjIxOS0uODIuMzI4LS40MDEuNzQ3LS42MDIgMS4yNTgtLjYwMi4yOTIgMCAuNTI5LjA3My43MTEuMjE5ek0xMC4yNzMgMTcuMzgzYy40MzguMjU1LjY1Ni42MzguNjU2IDEuMTQ4IDAgLjI5Mi0uMDczLjU2NS0uMjE5LjgyLS4yOTIuNDAxLS43MTEuNjAyLTEuMjU4LjYwMmExLjU3IDEuNTcgMCAwIDEtLjcxMS0uMTY0bC0yLjc4OS0xLjY5NWMtLjQzNy0uMjkyLS42NTYtLjY1Ni0uNjU2LTEuMDk0IDAtLjI5Mi4wOTEtLjU4My4yNzMtLjg3NS4zMjgtLjQwMS43MjktLjYwMiAxLjIwMy0uNjAyLjI5MiAwIC41MjkuMDczLjcxMS4yMTl6Ii8+JiN4YTs8L3N2Zz4;strokeColor=none;" 
          id="deploy_sap_" 
          parent="shape_" 
          value=" " 
          vertex="1"
          >
          <mxGeometry
            width="25" 
            height="28" 
            as="geometry" 
            x="10" 
            y="10"
            />
          </mxCell>
        </root>
      </mxGraphModel>
    </diagram>
  </mxfile>